<svg viewBox="0 0 800 720" xmlns="http://www.w3.org/2000/svg">
  <defs>
    <marker id="arrow" markerWidth="8" markerHeight="6" refX="7" refY="3" orient="auto">
      <polygon points="0 0, 8 3, 0 6" fill="#4f5d75"/>
    </marker>
    <marker id="arrow-accent" markerWidth="8" markerHeight="6" refX="7" refY="3" orient="auto">
      <polygon points="0 0, 8 3, 0 6" fill="#eb6c36"/>
    </marker>
  </defs>
  <rect width="100%" height="100%" fill="#f5f5f5"/>

  <!-- Arrows first (so they render behind boxes) -->
  <path d="M 400 76 L 400 116" stroke="#4f5d75" stroke-width="1" fill="none" marker-end="url(#arrow)"/>
  <path d="M 400 172 L 400 212" stroke="#4f5d75" stroke-width="1" fill="none" marker-end="url(#arrow)"/>
  <path d="M 460 240 L 660 240" stroke="#4f5d75" stroke-width="1" fill="none" marker-end="url(#arrow)" stroke-dasharray="5,4"/>
  <path d="M 400 268 L 400 308" stroke="#4f5d75" stroke-width="1" fill="none" marker-end="url(#arrow)"/>
  <path d="M 400 364 L 400 404" stroke="#4f5d75" stroke-width="1" fill="none" marker-end="url(#arrow)"/>
  <path d="M 400 460 L 400 500" stroke="#eb6c36" stroke-width="1" fill="none" marker-end="url(#arrow-accent)"/>
  <path d="M 400 556 L 400 596" stroke="#4f5d75" stroke-width="1" fill="none" marker-end="url(#arrow)"/>
  <path d="M 400 652 L 400 692" stroke="#4f5d75" stroke-width="1" fill="none" marker-end="url(#arrow)"/>

  <!-- Arrow label: skip path -->
  <rect x="525" y="226" width="70" height="14" rx="2" fill="#f5f5f5"/>
  <text x="560" y="237" fill="#7a8399" font-size="8" font-family="'Geist Mono', monospace" text-anchor="middle" letter-spacing="0.08em">HASH MATCH</text>

  <!-- Node 1: source dropped -->
  <rect x="320" y="36" width="160" height="40" rx="6" fill="#f5f5f5"/>
  <rect x="320" y="36" width="160" height="40" rx="6" fill="rgba(45,49,66,0.10)" stroke="#7a8399"/>
  <text x="400" y="61" fill="#2d3142" font-size="12" font-weight="600" font-family="'Geist', sans-serif" text-anchor="middle">file dropped in entry point</text>

  <!-- Node 2: SHA-256 check -->
  <rect x="320" y="116" width="160" height="56" rx="6" fill="#f5f5f5"/>
  <rect x="320" y="116" width="160" height="56" rx="6" fill="#ffffff" stroke="#2d3142"/>
  <text x="400" y="140" fill="#2d3142" font-size="12" font-weight="600" font-family="'Geist', sans-serif" text-anchor="middle">compute SHA-256</text>
  <text x="400" y="158" fill="#4f5d75" font-size="9" font-family="'Geist Mono', monospace" text-anchor="middle">compare to manifest</text>

  <!-- Node 3: skip (right side) -->
  <rect x="660" y="212" width="120" height="56" rx="6" fill="#f5f5f5"/>
  <rect x="660" y="212" width="120" height="56" rx="6" fill="rgba(45,49,66,0.05)" stroke="rgba(45,49,66,0.30)" stroke-dasharray="4,3"/>
  <text x="720" y="236" fill="#2d3142" font-size="12" font-weight="600" font-family="'Geist', sans-serif" text-anchor="middle">skip</text>
  <text x="720" y="254" fill="#4f5d75" font-size="9" font-family="'Geist Mono', monospace" text-anchor="middle">no-op</text>

  <!-- Node 4: classify source -->
  <rect x="320" y="212" width="160" height="56" rx="6" fill="#f5f5f5"/>
  <rect x="320" y="212" width="160" height="56" rx="6" fill="#ffffff" stroke="#2d3142"/>
  <text x="400" y="236" fill="#2d3142" font-size="12" font-weight="600" font-family="'Geist', sans-serif" text-anchor="middle">classify source</text>
  <text x="400" y="254" fill="#4f5d75" font-size="9" font-family="'Geist Mono', monospace" text-anchor="middle">assign source_quality</text>

  <!-- Node 5: extract items -->
  <rect x="320" y="308" width="160" height="56" rx="6" fill="#f5f5f5"/>
  <rect x="320" y="308" width="160" height="56" rx="6" fill="#ffffff" stroke="#2d3142"/>
  <text x="400" y="332" fill="#2d3142" font-size="12" font-weight="600" font-family="'Geist', sans-serif" text-anchor="middle">extract knowledge items</text>
  <text x="400" y="350" fill="#4f5d75" font-size="9" font-family="'Geist Mono', monospace" text-anchor="middle">entities, claims, links</text>

  <!-- Node 6: route per CLAUDE.md -->
  <rect x="320" y="404" width="160" height="56" rx="6" fill="#f5f5f5"/>
  <rect x="320" y="404" width="160" height="56" rx="6" fill="#ffffff" stroke="#2d3142"/>
  <text x="400" y="428" fill="#2d3142" font-size="12" font-weight="600" font-family="'Geist', sans-serif" text-anchor="middle">route per CLAUDE.md</text>
  <text x="400" y="446" fill="#4f5d75" font-size="9" font-family="'Geist Mono', monospace" text-anchor="middle">projects, docs, resources...</text>

  <!-- Node 7: write or update page (focal) -->
  <rect x="320" y="500" width="160" height="56" rx="6" fill="#f5f5f5"/>
  <rect x="320" y="500" width="160" height="56" rx="6" fill="rgba(235,108,54,0.08)" stroke="#eb6c36"/>
  <text x="400" y="524" fill="#2d3142" font-size="12" font-weight="600" font-family="'Geist', sans-serif" text-anchor="middle">write or update page</text>
  <text x="400" y="542" fill="#4f5d75" font-size="9" font-family="'Geist Mono', monospace" text-anchor="middle">frontmatter, provenance, links</text>

  <!-- Node 8: post-ingest -->
  <rect x="320" y="596" width="160" height="56" rx="6" fill="#f5f5f5"/>
  <rect x="320" y="596" width="160" height="56" rx="6" fill="#ffffff" stroke="#2d3142"/>
  <text x="400" y="620" fill="#2d3142" font-size="12" font-weight="600" font-family="'Geist', sans-serif" text-anchor="middle">post-ingest</text>
  <text x="400" y="638" fill="#4f5d75" font-size="9" font-family="'Geist Mono', monospace" text-anchor="middle">processed: true, move or keep</text>

  <!-- Node 9: update tracking -->
  <rect x="280" y="692" width="240" height="24" rx="6" fill="#f5f5f5"/>
  <rect x="280" y="692" width="240" height="24" rx="6" fill="rgba(45,49,66,0.05)" stroke="#4f5d75"/>
  <text x="400" y="708" fill="#2d3142" font-size="11" font-weight="600" font-family="'Geist', sans-serif" text-anchor="middle">update manifest, log, hot.md</text>
</svg>
