<svg viewBox="0 0 800 520" xmlns="http://www.w3.org/2000/svg">
  <defs>
    <marker id="arrow" markerWidth="8" markerHeight="6" refX="7" refY="3" orient="auto">
      <polygon points="0 0, 8 3, 0 6" fill="#4f5d75"/>
    </marker>
    <marker id="arrow-accent" markerWidth="8" markerHeight="6" refX="7" refY="3" orient="auto">
      <polygon points="0 0, 8 3, 0 6" fill="#eb6c36"/>
    </marker>
  </defs>
  <rect width="100%" height="100%" fill="#f5f5f5"/>

  <!-- Arrows (drawn first) -->
  <!-- ingest -> draft -->
  <path d="M 152 120 L 232 120" stroke="#eb6c36" stroke-width="1" fill="none" marker-end="url(#arrow-accent)"/>
  <rect x="156" y="100" width="72" height="14" rx="2" fill="#f5f5f5"/>
  <text x="192" y="111" fill="#7a8399" font-size="8" font-family="'Geist Mono', monospace" text-anchor="middle" letter-spacing="0.06em">/INGEST /CAPTURE</text>

  <!-- draft -> reviewed -->
  <path d="M 352 120 L 432 120" stroke="#4f5d75" stroke-width="1" fill="none" marker-end="url(#arrow)"/>
  <rect x="356" y="100" width="72" height="14" rx="2" fill="#f5f5f5"/>
  <text x="392" y="111" fill="#7a8399" font-size="8" font-family="'Geist Mono', monospace" text-anchor="middle" letter-spacing="0.06em">HUMAN EDIT</text>

  <!-- reviewed -> verified -->
  <path d="M 552 120 L 632 120" stroke="#4f5d75" stroke-width="1" fill="none" marker-end="url(#arrow)"/>
  <rect x="556" y="100" width="72" height="14" rx="2" fill="#f5f5f5"/>
  <text x="592" y="111" fill="#7a8399" font-size="8" font-family="'Geist Mono', monospace" text-anchor="middle" letter-spacing="0.06em">HUMAN EDIT</text>

  <!-- draft -> disputed -->
  <path d="M 292 152 L 292 232" stroke="#4f5d75" stroke-width="1" fill="none" marker-end="url(#arrow)"/>
  <rect x="296" y="180" width="80" height="14" rx="2" fill="#f5f5f5"/>
  <text x="336" y="191" fill="#7a8399" font-size="8" font-family="'Geist Mono', monospace" text-anchor="middle" letter-spacing="0.06em">CONTRADICTION</text>

  <!-- reviewed/verified -> archived -->
  <path d="M 492 152 L 492 332" stroke="#4f5d75" stroke-width="1" fill="none" marker-end="url(#arrow)"/>
  <rect x="496" y="220" width="84" height="14" rx="2" fill="#f5f5f5"/>
  <text x="538" y="231" fill="#7a8399" font-size="8" font-family="'Geist Mono', monospace" text-anchor="middle" letter-spacing="0.06em">SUPERSEDED_BY</text>

  <!-- Update from any state -->
  <path d="M 292 232 L 292 168" stroke="#4f5d75" stroke-width="1" fill="none" stroke-dasharray="5,4" marker-end="url(#arrow)"/>

  <!-- States -->
  <!-- initial node -->
  <circle cx="120" cy="120" r="10" fill="#2d3142"/>
  <text x="120" y="148" fill="#4f5d75" font-size="9" font-family="'Geist Mono', monospace" text-anchor="middle">new source</text>

  <!-- draft -->
  <rect x="232" y="92" width="120" height="56" rx="6" fill="#f5f5f5"/>
  <rect x="232" y="92" width="120" height="56" rx="6" fill="rgba(235,108,54,0.08)" stroke="#eb6c36"/>
  <text x="292" y="116" fill="#2d3142" font-size="12" font-weight="600" font-family="'Geist', sans-serif" text-anchor="middle">draft</text>
  <text x="292" y="134" fill="#4f5d75" font-size="9" font-family="'Geist Mono', monospace" text-anchor="middle">agent-written</text>

  <!-- reviewed -->
  <rect x="432" y="92" width="120" height="56" rx="6" fill="#f5f5f5"/>
  <rect x="432" y="92" width="120" height="56" rx="6" fill="#ffffff" stroke="#2d3142"/>
  <text x="492" y="116" fill="#2d3142" font-size="12" font-weight="600" font-family="'Geist', sans-serif" text-anchor="middle">reviewed</text>
  <text x="492" y="134" fill="#4f5d75" font-size="9" font-family="'Geist Mono', monospace" text-anchor="middle">human-edited</text>

  <!-- verified -->
  <rect x="632" y="92" width="120" height="56" rx="6" fill="#f5f5f5"/>
  <rect x="632" y="92" width="120" height="56" rx="6" fill="#ffffff" stroke="#2d3142"/>
  <text x="692" y="116" fill="#2d3142" font-size="12" font-weight="600" font-family="'Geist', sans-serif" text-anchor="middle">verified</text>
  <text x="692" y="134" fill="#4f5d75" font-size="9" font-family="'Geist Mono', monospace" text-anchor="middle">human-confirmed</text>

  <!-- disputed -->
  <rect x="232" y="232" width="120" height="56" rx="6" fill="#f5f5f5"/>
  <rect x="232" y="232" width="120" height="56" rx="6" fill="#ffffff" stroke="#2d3142"/>
  <text x="292" y="256" fill="#2d3142" font-size="12" font-weight="600" font-family="'Geist', sans-serif" text-anchor="middle">disputed</text>
  <text x="292" y="274" fill="#4f5d75" font-size="9" font-family="'Geist Mono', monospace" text-anchor="middle">sources disagree</text>

  <!-- archived (terminal) -->
  <rect x="432" y="332" width="120" height="56" rx="6" fill="#f5f5f5"/>
  <rect x="432" y="332" width="120" height="56" rx="6" fill="rgba(45,49,66,0.05)" stroke="#4f5d75"/>
  <text x="492" y="356" fill="#2d3142" font-size="12" font-weight="600" font-family="'Geist', sans-serif" text-anchor="middle">archived</text>
  <text x="492" y="374" fill="#4f5d75" font-size="9" font-family="'Geist Mono', monospace" text-anchor="middle">terminal</text>

  <!-- Overlay: stale -->
  <line x1="40" y1="432" x2="760" y2="432" stroke="rgba(45,49,66,0.10)" stroke-width="0.8"/>
  <text x="40" y="424" fill="#7a8399" font-size="9" font-family="'Geist Mono', monospace" letter-spacing="0.14em">OVERLAY, NOT A STATE</text>

  <rect x="40" y="448" width="720" height="48" rx="6" fill="rgba(45,49,66,0.03)" stroke="rgba(45,49,66,0.30)" stroke-dasharray="4,3"/>
  <text x="60" y="472" fill="#2d3142" font-size="12" font-weight="600" font-family="'Geist', sans-serif">stale</text>
  <text x="60" y="488" fill="#4f5d75" font-size="10" font-family="'Geist Mono', monospace">is_stale = (today - updated) &gt; 90 days. Computed at read time. Any state can be stale.</text>
</svg>
